<svg xmlns="http://www.w3.org/2000/svg" width="512" height="512" viewBox="0 0 192 192"><rect width="192" height="192" rx="42" fill="#171513"/><circle cx="96" cy="101" r="51" fill="#f59e0b"/><path d="M61 91c-8-25 14-48 38-40 13-17 38-8 38 12 17 5 19 29 3 39-4 31-22 52-47 52-25 0-43-25-32-63z" fill="#fff7ed"/><circle cx="116" cy="78" r="6" fill="#171513"/><path d="M133 89l25 9-25 10zM82 52c-10-18 12-25 20-9 9-17 29-4 16 11" fill="#ef4444"/><path d="M80 128c12 9 26 9 38 0" fill="none" stroke="#171513" stroke-width="7" stroke-linecap="round"/></svg>
